<svg xmlns="http://www.w3.org/2000/svg" viewBox="0 0 120 120" width="120" height="120" color="#ffffff">
  <path d="M60 6 L104 31 L104 81 L60 106 L16 81 L16 31 Z" fill="none" stroke="currentColor" stroke-width="3"/>
  <circle cx="60" cy="56" r="15" fill="none" stroke="currentColor" stroke-width="3"/>
  <circle cx="60" cy="56" r="6.5" fill="currentColor"/>
  <g stroke="currentColor" stroke-width="2.4" stroke-linecap="round"><line x1="60" y1="33" x2="60" y2="40"/><line x1="83" y1="56" x2="76" y2="56"/><line x1="37" y1="56" x2="44" y2="56"/></g>
  <path d="M30 78 L60 70 L90 78 L90 84 L60 76 L30 84 Z" fill="currentColor"/>
  <g fill="currentColor"><rect x="32" y="88" width="8" height="6" rx="1"/><rect x="44" y="88" width="8" height="6" rx="1"/><rect x="56" y="88" width="8" height="6" rx="1"/><rect x="68" y="88" width="8" height="6" rx="1"/><rect x="80" y="88" width="8" height="6" rx="1"/></g>
</svg>
